solid OpenSCAD_Model
  facet normal -0 -0 -1
    outer loop
      vertex 1.13613 1.64597 0
      vertex 1.49702 1.32625 0
      vertex 0.70921 1.87003 0
    endloop
  endfacet
  facet normal -0 -0 -1
    outer loop
      vertex 0.70921 1.87003 0
      vertex 1.49702 1.32625 0
      vertex 0.241073 1.98542 0
    endloop
  endfacet
  facet normal -0 -0 -1
    outer loop
      vertex 0.241073 1.98542 0
      vertex 1.49702 1.32625 0
      vertex -0.241073 1.98542 0
    endloop
  endfacet
  facet normal 0 0 -1
    outer loop
      vertex -1.49702 -1.32625 0
      vertex -1.77091 -0.929446 0
      vertex -1.13613 -1.64597 0
    endloop
  endfacet
  facet normal 0 -0 -1
    outer loop
      vertex -0.241073 1.98542 0
      vertex 1.49702 1.32625 0
      vertex -0.70921 1.87003 0
    endloop
  endfacet
  facet normal 0 -0 -1
    outer loop
      vertex -0.70921 1.87003 0
      vertex 1.49702 1.32625 0
      vertex -1.13613 1.64597 0
    endloop
  endfacet
  facet normal 0 0 -1
    outer loop
      vertex -1.77091 0.929446 0
      vertex 1.49702 1.32625 0
      vertex 1.77091 0.929446 0
    endloop
  endfacet
  facet normal 0 -0 -1
    outer loop
      vertex -1.13613 1.64597 0
      vertex 1.49702 1.32625 0
      vertex -1.77091 0.929446 0
    endloop
  endfacet
  facet normal 0 -0 -1
    outer loop
      vertex -1.49702 1.32625 0
      vertex -1.13613 1.64597 0
      vertex -1.77091 0.929446 0
    endloop
  endfacet
  facet normal 0 0 -1
    outer loop
      vertex -0.241073 -1.98542 0
      vertex 1.77091 -0.929446 0
      vertex 0.241073 -1.98542 0
    endloop
  endfacet
  facet normal 0 0 -1
    outer loop
      vertex 0.241073 -1.98542 0
      vertex 1.77091 -0.929446 0
      vertex 0.70921 -1.87003 0
    endloop
  endfacet
  facet normal 0 0 -1
    outer loop
      vertex 0.70921 -1.87003 0
      vertex 1.77091 -0.929446 0
      vertex 1.13613 -1.64597 0
    endloop
  endfacet
  facet normal 0 0 -1
    outer loop
      vertex 1.13613 -1.64597 0
      vertex 1.77091 -0.929446 0
      vertex 1.49702 -1.32625 0
    endloop
  endfacet
  facet normal 0 0 -1
    outer loop
      vertex 2 0 0
      vertex 1.77091 0.929446 0
      vertex 1.94188 0.478631 0
    endloop
  endfacet
  facet normal 0 -0 -1
    outer loop
      vertex -1.77091 0.929446 0
      vertex 1.77091 0.929446 0
      vertex -1.94188 0.478631 0
    endloop
  endfacet
  facet normal 0 -0 -1
    outer loop
      vertex -1.94188 0.478631 0
      vertex 1.77091 0.929446 0
      vertex -2 0 0
    endloop
  endfacet
  facet normal 0 0 -1
    outer loop
      vertex -2 0 0
      vertex 1.77091 0.929446 0
      vertex -1.94188 -0.478631 0
    endloop
  endfacet
  facet normal 0 0 -1
    outer loop
      vertex -1.94188 -0.478631 0
      vertex 1.77091 0.929446 0
      vertex -1.77091 -0.929446 0
    endloop
  endfacet
  facet normal 0 0 -1
    outer loop
      vertex -1.13613 -1.64597 0
      vertex 1.77091 0.929446 0
      vertex -0.70921 -1.87003 0
    endloop
  endfacet
  facet normal 0 0 -1
    outer loop
      vertex -0.70921 -1.87003 0
      vertex 1.77091 0.929446 0
      vertex -0.241073 -1.98542 0
    endloop
  endfacet
  facet normal 0 0 -1
    outer loop
      vertex 1.77091 -0.929446 0
      vertex 1.77091 0.929446 0
      vertex 1.94188 -0.478631 0
    endloop
  endfacet
  facet normal 0 0 -1
    outer loop
      vertex 1.94188 -0.478631 0
      vertex 1.77091 0.929446 0
      vertex 2 0 0
    endloop
  endfacet
  facet normal 0 0 -1
    outer loop
      vertex -1.77091 -0.929446 0
      vertex 1.77091 0.929446 0
      vertex -1.13613 -1.64597 0
    endloop
  endfacet
  facet normal 0 0 -1
    outer loop
      vertex -0.241073 -1.98542 0
      vertex 1.77091 0.929446 0
      vertex 1.77091 -0.929446 0
    endloop
  endfacet
  facet normal 0.992708 0.120544 0
    outer loop
      vertex 1.94188 0.478631 118
      vertex 2 0 118
      vertex 2 0 0
    endloop
  endfacet
  facet normal 0.992708 0.120544 0
    outer loop
      vertex 1.94188 0.478631 118
      vertex 2 0 0
      vertex 1.94188 0.478631 0
    endloop
  endfacet
  facet normal 0.935017 0.354602 0
    outer loop
      vertex 1.77091 0.929446 118
      vertex 1.94188 0.478631 0
      vertex 1.77091 0.929446 0
    endloop
  endfacet
  facet normal 0.935017 0.354602 0
    outer loop
      vertex 1.77091 0.929446 118
      vertex 1.94188 0.478631 118
      vertex 1.94188 0.478631 0
    endloop
  endfacet
  facet normal 0.822988 0.568059 0
    outer loop
      vertex 1.49702 1.32625 118
      vertex 1.77091 0.929446 0
      vertex 1.49702 1.32625 0
    endloop
  endfacet
  facet normal 0.822988 0.568059 0
    outer loop
      vertex 1.49702 1.32625 118
      vertex 1.77091 0.929446 118
      vertex 1.77091 0.929446 0
    endloop
  endfacet
  facet normal 0.663122 0.748511 0
    outer loop
      vertex 1.13613 1.64597 118
      vertex 1.49702 1.32625 0
      vertex 1.13613 1.64597 0
    endloop
  endfacet
  facet normal 0.663122 0.748511 0
    outer loop
      vertex 1.13613 1.64597 118
      vertex 1.49702 1.32625 118
      vertex 1.49702 1.32625 0
    endloop
  endfacet
  facet normal 0.464715 0.88546 0
    outer loop
      vertex 0.70921 1.87003 118
      vertex 1.13613 1.64597 0
      vertex 0.70921 1.87003 0
    endloop
  endfacet
  facet normal 0.239325 0.97094 0
    outer loop
      vertex 0.70921 1.87003 118
      vertex 0.70921 1.87003 0
      vertex 0.241073 1.98542 0
    endloop
  endfacet
  facet normal 0.464715 0.88546 0
    outer loop
      vertex 0.70921 1.87003 118
      vertex 1.13613 1.64597 118
      vertex 1.13613 1.64597 0
    endloop
  endfacet
  facet normal 0.239325 0.97094 0
    outer loop
      vertex 0.241073 1.98542 118
      vertex 0.70921 1.87003 118
      vertex 0.241073 1.98542 0
    endloop
  endfacet
  facet normal 0 1 0
    outer loop
      vertex -0.241073 1.98542 118
      vertex 0.241073 1.98542 0
      vertex -0.241073 1.98542 0
    endloop
  endfacet
  facet normal -0.239325 0.97094 0
    outer loop
      vertex -0.241073 1.98542 118
      vertex -0.241073 1.98542 0
      vertex -0.70921 1.87003 0
    endloop
  endfacet
  facet normal -0 1 0
    outer loop
      vertex -0.241073 1.98542 118
      vertex 0.241073 1.98542 118
      vertex 0.241073 1.98542 0
    endloop
  endfacet
  facet normal -0.239325 0.97094 0
    outer loop
      vertex -0.70921 1.87003 118
      vertex -0.241073 1.98542 118
      vertex -0.70921 1.87003 0
    endloop
  endfacet
  facet normal -0.464715 0.88546 0
    outer loop
      vertex -1.13613 1.64597 118
      vertex -0.70921 1.87003 0
      vertex -1.13613 1.64597 0
    endloop
  endfacet
  facet normal -0.663122 0.748511 0
    outer loop
      vertex -1.13613 1.64597 118
      vertex -1.13613 1.64597 0
      vertex -1.49702 1.32625 0
    endloop
  endfacet
  facet normal -0.464715 0.88546 0
    outer loop
      vertex -1.13613 1.64597 118
      vertex -0.70921 1.87003 118
      vertex -0.70921 1.87003 0
    endloop
  endfacet
  facet normal -0.822988 0.568059 0
    outer loop
      vertex -1.49702 1.32625 118
      vertex -1.49702 1.32625 0
      vertex -1.77091 0.929446 0
    endloop
  endfacet
  facet normal -0.663122 0.748511 0
    outer loop
      vertex -1.49702 1.32625 118
      vertex -1.13613 1.64597 118
      vertex -1.49702 1.32625 0
    endloop
  endfacet
  facet normal -0.822988 0.568059 0
    outer loop
      vertex -1.77091 0.929446 118
      vertex -1.49702 1.32625 118
      vertex -1.77091 0.929446 0
    endloop
  endfacet
  facet normal -0.935017 0.354602 0
    outer loop
      vertex -1.94188 0.478631 118
      vertex -1.77091 0.929446 0
      vertex -1.94188 0.478631 0
    endloop
  endfacet
  facet normal -0.935017 0.354602 0
    outer loop
      vertex -1.94188 0.478631 118
      vertex -1.77091 0.929446 118
      vertex -1.77091 0.929446 0
    endloop
  endfacet
  facet normal -0.992708 0.120544 0
    outer loop
      vertex -2 0 118
      vertex -1.94188 0.478631 0
      vertex -2 0 0
    endloop
  endfacet
  facet normal -0.992708 0.120544 0
    outer loop
      vertex -2 0 118
      vertex -1.94188 0.478631 118
      vertex -1.94188 0.478631 0
    endloop
  endfacet
  facet normal -0.992708 -0.120544 0
    outer loop
      vertex -1.94188 -0.478631 118
      vertex -2 0 118
      vertex -2 0 0
    endloop
  endfacet
  facet normal -0.992708 -0.120544 -0
    outer loop
      vertex -1.94188 -0.478631 118
      vertex -2 0 0
      vertex -1.94188 -0.478631 0
    endloop
  endfacet
  facet normal -0.935017 -0.354602 -0
    outer loop
      vertex -1.77091 -0.929446 118
      vertex -1.94188 -0.478631 0
      vertex -1.77091 -0.929446 0
    endloop
  endfacet
  facet normal -0.935017 -0.354602 0
    outer loop
      vertex -1.77091 -0.929446 118
      vertex -1.94188 -0.478631 118
      vertex -1.94188 -0.478631 0
    endloop
  endfacet
  facet normal -0.822988 -0.568059 -0
    outer loop
      vertex -1.49702 -1.32625 118
      vertex -1.77091 -0.929446 0
      vertex -1.49702 -1.32625 0
    endloop
  endfacet
  facet normal -0.822988 -0.568059 0
    outer loop
      vertex -1.49702 -1.32625 118
      vertex -1.77091 -0.929446 118
      vertex -1.77091 -0.929446 0
    endloop
  endfacet
  facet normal -0.663122 -0.748511 -0
    outer loop
      vertex -1.13613 -1.64597 118
      vertex -1.49702 -1.32625 0
      vertex -1.13613 -1.64597 0
    endloop
  endfacet
  facet normal -0.464715 -0.88546 -0
    outer loop
      vertex -1.13613 -1.64597 118
      vertex -1.13613 -1.64597 0
      vertex -0.70921 -1.87003 0
    endloop
  endfacet
  facet normal -0.663122 -0.748511 0
    outer loop
      vertex -1.13613 -1.64597 118
      vertex -1.49702 -1.32625 118
      vertex -1.49702 -1.32625 0
    endloop
  endfacet
  facet normal -0.464715 -0.88546 -0
    outer loop
      vertex -0.70921 -1.87003 118
      vertex -1.13613 -1.64597 118
      vertex -0.70921 -1.87003 0
    endloop
  endfacet
  facet normal -0.239325 -0.97094 -0
    outer loop
      vertex -0.241073 -1.98542 118
      vertex -0.70921 -1.87003 0
      vertex -0.241073 -1.98542 0
    endloop
  endfacet
  facet normal 0 -1 0
    outer loop
      vertex -0.241073 -1.98542 118
      vertex -0.241073 -1.98542 0
      vertex 0.241073 -1.98542 0
    endloop
  endfacet
  facet normal -0.239325 -0.97094 0
    outer loop
      vertex -0.241073 -1.98542 118
      vertex -0.70921 -1.87003 118
      vertex -0.70921 -1.87003 0
    endloop
  endfacet
  facet normal -0 -1 -0
    outer loop
      vertex 0.241073 -1.98542 118
      vertex -0.241073 -1.98542 118
      vertex 0.241073 -1.98542 0
    endloop
  endfacet
  facet normal 0.239325 -0.97094 0
    outer loop
      vertex 0.70921 -1.87003 118
      vertex 0.241073 -1.98542 0
      vertex 0.70921 -1.87003 0
    endloop
  endfacet
  facet normal 0.464715 -0.88546 0
    outer loop
      vertex 0.70921 -1.87003 118
      vertex 0.70921 -1.87003 0
      vertex 1.13613 -1.64597 0
    endloop
  endfacet
  facet normal 0.239325 -0.97094 0
    outer loop
      vertex 0.70921 -1.87003 118
      vertex 0.241073 -1.98542 118
      vertex 0.241073 -1.98542 0
    endloop
  endfacet
  facet normal 0.663122 -0.748511 0
    outer loop
      vertex 1.13613 -1.64597 118
      vertex 1.13613 -1.64597 0
      vertex 1.49702 -1.32625 0
    endloop
  endfacet
  facet normal 0.464715 -0.88546 0
    outer loop
      vertex 1.13613 -1.64597 118
      vertex 0.70921 -1.87003 118
      vertex 1.13613 -1.64597 0
    endloop
  endfacet
  facet normal 0.822988 -0.568059 0
    outer loop
      vertex 1.49702 -1.32625 118
      vertex 1.49702 -1.32625 0
      vertex 1.77091 -0.929446 0
    endloop
  endfacet
  facet normal 0.663122 -0.748511 0
    outer loop
      vertex 1.49702 -1.32625 118
      vertex 1.13613 -1.64597 118
      vertex 1.49702 -1.32625 0
    endloop
  endfacet
  facet normal 0.822988 -0.568059 0
    outer loop
      vertex 1.77091 -0.929446 118
      vertex 1.49702 -1.32625 118
      vertex 1.77091 -0.929446 0
    endloop
  endfacet
  facet normal 0.935017 -0.354602 0
    outer loop
      vertex 1.94188 -0.478631 118
      vertex 1.77091 -0.929446 0
      vertex 1.94188 -0.478631 0
    endloop
  endfacet
  facet normal 0.935017 -0.354602 0
    outer loop
      vertex 1.94188 -0.478631 118
      vertex 1.77091 -0.929446 118
      vertex 1.77091 -0.929446 0
    endloop
  endfacet
  facet normal 0.992708 -0.120544 0
    outer loop
      vertex 2 0 118
      vertex 1.94188 -0.478631 0
      vertex 2 0 0
    endloop
  endfacet
  facet normal 0.992708 -0.120544 0
    outer loop
      vertex 2 0 118
      vertex 1.94188 -0.478631 118
      vertex 1.94188 -0.478631 0
    endloop
  endfacet
  facet normal 0 0 1
    outer loop
      vertex 1.49702 1.32625 118
      vertex 1.13613 1.64597 118
      vertex 0.70921 1.87003 118
    endloop
  endfacet
  facet normal 0 0 1
    outer loop
      vertex 1.49702 1.32625 118
      vertex 0.70921 1.87003 118
      vertex 0.241073 1.98542 118
    endloop
  endfacet
  facet normal 0 0 1
    outer loop
      vertex 1.49702 1.32625 118
      vertex 0.241073 1.98542 118
      vertex -0.241073 1.98542 118
    endloop
  endfacet
  facet normal 0 0 1
    outer loop
      vertex -1.77091 -0.929446 118
      vertex -1.49702 -1.32625 118
      vertex -1.13613 -1.64597 118
    endloop
  endfacet
  facet normal 0 0 1
    outer loop
      vertex 1.49702 1.32625 118
      vertex -0.241073 1.98542 118
      vertex -0.70921 1.87003 118
    endloop
  endfacet
  facet normal 0 0 1
    outer loop
      vertex 1.49702 1.32625 118
      vertex -0.70921 1.87003 118
      vertex -1.13613 1.64597 118
    endloop
  endfacet
  facet normal 0 0 1
    outer loop
      vertex 1.49702 1.32625 118
      vertex -1.77091 0.929446 118
      vertex 1.77091 0.929446 118
    endloop
  endfacet
  facet normal 0 0 1
    outer loop
      vertex 1.49702 1.32625 118
      vertex -1.13613 1.64597 118
      vertex -1.77091 0.929446 118
    endloop
  endfacet
  facet normal 0 0 1
    outer loop
      vertex -1.13613 1.64597 118
      vertex -1.49702 1.32625 118
      vertex -1.77091 0.929446 118
    endloop
  endfacet
  facet normal 0 0 1
    outer loop
      vertex 1.77091 -0.929446 118
      vertex -0.241073 -1.98542 118
      vertex 0.241073 -1.98542 118
    endloop
  endfacet
  facet normal 0 0 1
    outer loop
      vertex 1.77091 -0.929446 118
      vertex 0.241073 -1.98542 118
      vertex 0.70921 -1.87003 118
    endloop
  endfacet
  facet normal 0 0 1
    outer loop
      vertex 1.77091 -0.929446 118
      vertex 0.70921 -1.87003 118
      vertex 1.13613 -1.64597 118
    endloop
  endfacet
  facet normal 0 0 1
    outer loop
      vertex 1.77091 -0.929446 118
      vertex 1.13613 -1.64597 118
      vertex 1.49702 -1.32625 118
    endloop
  endfacet
  facet normal 0 0 1
    outer loop
      vertex 1.77091 0.929446 118
      vertex 2 0 118
      vertex 1.94188 0.478631 118
    endloop
  endfacet
  facet normal 0 0 1
    outer loop
      vertex 1.77091 0.929446 118
      vertex -1.77091 0.929446 118
      vertex -1.94188 0.478631 118
    endloop
  endfacet
  facet normal 0 0 1
    outer loop
      vertex 1.77091 0.929446 118
      vertex -1.94188 0.478631 118
      vertex -2 0 118
    endloop
  endfacet
  facet normal 0 0 1
    outer loop
      vertex 1.77091 0.929446 118
      vertex -2 0 118
      vertex -1.94188 -0.478631 118
    endloop
  endfacet
  facet normal 0 0 1
    outer loop
      vertex 1.77091 0.929446 118
      vertex -1.94188 -0.478631 118
      vertex -1.77091 -0.929446 118
    endloop
  endfacet
  facet normal 0 0 1
    outer loop
      vertex 1.77091 0.929446 118
      vertex -1.13613 -1.64597 118
      vertex -0.70921 -1.87003 118
    endloop
  endfacet
  facet normal 0 0 1
    outer loop
      vertex 1.77091 0.929446 118
      vertex -0.70921 -1.87003 118
      vertex -0.241073 -1.98542 118
    endloop
  endfacet
  facet normal 0 0 1
    outer loop
      vertex 1.77091 0.929446 118
      vertex 1.77091 -0.929446 118
      vertex 1.94188 -0.478631 118
    endloop
  endfacet
  facet normal 0 0 1
    outer loop
      vertex 1.77091 0.929446 118
      vertex 1.94188 -0.478631 118
      vertex 2 0 118
    endloop
  endfacet
  facet normal 0 0 1
    outer loop
      vertex 1.77091 0.929446 118
      vertex -1.77091 -0.929446 118
      vertex -1.13613 -1.64597 118
    endloop
  endfacet
  facet normal 0 0 1
    outer loop
      vertex 1.77091 0.929446 118
      vertex -0.241073 -1.98542 118
      vertex 1.77091 -0.929446 118
    endloop
  endfacet
endsolid OpenSCAD_Model
